<svg xmlns="http://www.w3.org/2000/svg" fill="none" viewBox="0 0 400 400" id="Motorcycle--Streamline-Milano" height="400" width="400">
  <desc>
    Motorcycle Streamline Illustration: https://streamlinehq.com
  </desc>
  <g id="motorcycle--travel-transportation-motorcycle">
    <g id="ground">
      <path id="vector" fill="currentColor" d="M300.848 315.582c-15.582 0.478 -30.174 1.316 -57.616 3.214 -12.732 0.88 -81.76 8.188 -96.182 10.222 -1.53 0.216 -3.026 0.43 -4.492 0.644 -1.048 1.236 -2.124 2.438 -3.224 3.606 72.128 -10.382 123.012 -13.918 163.642 -15.244 -0.732 -0.778 -1.442 -1.592 -2.128 -2.442Z" stroke-width="2"></path>
      <path id="vector_2" fill="currentColor" d="M42.972 345.214c-13.85 2.29 -26.27402 4.868 -20.416 6.068 7.088 -0.99 1.898 -0.06 10.188 -1.538 5.714 -1.018 10.02 -1.764 13.456 -2.338 -1.094 -0.698 -2.17 -1.428 -3.228 -2.192Z" stroke-width="2"></path>
      <path id="vector_3" fill="currentColor" d="M365.41 314.41c-0.724 0.902 -1.48 1.788 -2.264 2.658 0.43 -0.004 0.858 -0.008 1.286 -0.012 0.042 0 25.292 -1.334 25.47 -1.8 0.888 -2.33 -4.074 -1.446 -24.494 -0.844l0.002 -0.002Z" stroke-width="2"></path>
    </g>
    <g id="elements">
      <path id="vector_4" fill="currentColor" d="M61.97 71.726c-0.54 0.204 -1.574 -0.332 12.884 11.512 16.94 13.878 19.73 17.316 22.248 18.324 0.658 0.264 1.77 -0.556 0.22 -2.052 -8.258 -7.968 -25.292 -22.69 -35.354 -27.786l0.002 0.002Z" stroke-width="2"></path>
      <path id="vector_5" fill="currentColor" d="M116.446 41.97c-0.438 2.116 11.09 35.454 14.056 38.474 0.326 0.332 0.716 0.266 0.99 -0.124 0.132 -0.188 0.174 -0.438 0.26 -0.666 -1.258 -4.136 -13.378 -35.16 -14.838 -37.842 -0.038 -0.068 -0.386 -0.238 -0.468 0.158Z" stroke-width="2"></path>
      <path id="vector_6" fill="currentColor" d="M87.798 140.136c-2.616 -0.684 -39.902 -3.35 -39.892 -2.802 0.028 1.644 36.554 4.962 39.906 4.458 0.998 -0.15 0.994 -1.394 -0.012 -1.656h-0.002Z" stroke-width="2"></path>
      <path id="vector_7" fill="currentColor" d="M178.378 42.692c-2.224 5.3 -3.712 8.332 -5.72 14.23 -0.756 2.22 -5.508 16.256 -6.96 21.912 0.234 0.08 -0.068 1.382 0.726 1.422 1.02 0.052 0.88 0.092 4.476 -10.982 0.386 -1.19 8.6 -26.5 8.294 -27.734 -0.424 0.208 -0.288 -0.106 -0.816 1.15v0.002Z" stroke-width="2"></path>
      <path id="vector_8" fill="currentColor" d="M223.164 68.402c-5.148 3.358 -22.626 18.336 -25.858 22.07 -0.53 0.612 -0.522 2.588 1.568 0.976 8.182 -6.308 29.39 -26.372 24.29 -23.046Z" stroke-width="2"></path>
    </g>
    <g id="motorcycle">
      <path id="vector_9" fill="currentColor" d="M129.108 273.85c0 -0.042 0 -2.26 0.008 -2.332 0.18 -1.34 1.898 -1.15 2.102 -0.038 0.398 2.17 -1.674 19.178 -15.202 25.692 -10.998 5.296 -22.082 -0.51 -24.588 -12.214 -3.154 -14.728 7.402 -30.286 20.206 -31.77 0.99 -0.114 1.54 0.806 0.76 1.304 -1.144 0.728 -4.732 0.56 -9.746 4.552 -14.156 11.27 -12.676 34.848 2.458 37.8 11.496 2.242 22.826 -10.112 23.772 -19.53 0.386 -3.844 0.39 -3.456 0.23 -3.466v0.002Z" stroke-width="2"></path>
      <path id="vector_10" fill="currentColor" d="M105.28 246.23c-1.074 3.864 -2.946 -19.598 -3.716 -20.672 -2.296 -3.208 -4.498 -6.488 -6.972 -9.568 -1.024 -1.274 -0.442 -2.608 1.262 -1.066 6.442 5.83 6.032 11.402 5.482 1.716 -0.33 -5.822 -0.28 -5.708 -0.046 -6.638 0.248 -0.99 1.434 -0.99 1.712 -0.03 0.228 0.786 0.828 9.27 0.836 9.454 0.27 5.882 0.096 5.798 0.752 6.752 1.84 2.686 12.328 17.254 11.42 18.486 -0.502 0.68 -10.834 -14.244 -11.454 -14.752 -0.36 1.716 1.296 14.272 0.726 16.32l-0.002 -0.002Z" stroke-width="2"></path>
      <path id="vector_11" fill="currentColor" d="M119.75 298.862c-2.782 7.712 -11.152 22.558 -11.02 24.308 0.034 0.454 0.708 10.318 0.412 10.664 -1.172 1.368 -0.84 -0.904 -1.966 -8.234 -1.698 2.85 -1.002 1.802 -6.052 11.088 -1.524 2.802 -2.46 1.584 -2.012 0.48 1.242 -3.072 0.064 -0.93 7.38 -15.178 0.6 -1.168 0.234 -1.6 -0.06 -4.76 -1.148 -12.404 -1.134 -12.506 -0.976 -13.122 0.118 -0.462 0.666 -0.598 1.002 -0.26 1.324 1.342 1.746 13.368 1.95 14.196 0.428 -0.612 10.536 -20.846 11.342 -19.182Z" stroke-width="2"></path>
      <path id="vector_12" fill="currentColor" d="M71.97 235.808c2.854 1.474 8.698 6.79 9.512 7.118 0 -0.604 -4.584 -14.746 -3.916 -16.978 0.144 -0.48 0.918 -0.506 1.048 -0.038l3.708 12.456c3.112 10.464 -0.028 4.428 13.39 16.166 2.034 1.78 0.996 2.29 -5.414 -2.48 -4.752 -3.536 -4.25 -3.338 -4.828 -3.432 0.034 0.812 5.126 16.754 4.934 17.662 -1.618 -0.378 -5.332 -12.2 -6.076 -14.452 -2.536 -7.666 0.744 -3.388 -12.608 -14.414 -0.926 -0.764 -1.058 -1.748 0.25 -1.608Z" stroke-width="2"></path>
      <path id="vector_13" fill="currentColor" d="M98.822 300.702c-2.706 3.568 -10.774 8.048 -11.962 9.818 -6.656 9.908 -7.976 11.818 -9.61 13.318 -0.31 0.284 -0.612 0.09 -0.412 -0.294 8.134 -15.548 10.676 -12.406 -5.342 -4.744 -1.172 0.56 -1.47 0.666 -1.894 0.174 -0.93 -1.078 4.542 -3.726 16.074 -10.676 1.368 -0.824 6.504 -9.438 8.094 -11.134 0.466 -0.498 1.368 -0.282 1.176 0.62 -0.07 0.326 0.048 0.086 -3.872 6.514 -0.844 1.384 0.472 0.298 2.012 -0.624 5.548 -3.322 5.242 -3.3 5.736 -2.972Z" stroke-width="2"></path>
      <path id="vector_14" fill="currentColor" d="M136.336 311.224c-0.064 0.322 -0.1 0.79 -0.242 1.214 -0.164 0.488 -0.722 0.534 -0.972 0.076 -0.662 -1.206 -2.268 -13.228 -2.356 -14.162 -0.086 -0.908 -0.282 -0.924 -4.684 -5.35 -0.208 -0.208 -1.078 -0.904 -0.57 -1.524 1.016 -1.238 3.448 2.064 4.706 2.816 0.178 -1.346 -1.19 -8.14 -0.756 -12.46 0.018 -0.174 0.332 -0.226 0.386 0.05 3.316 16.542 1.88 14.29 3.894 16.414 5.316 5.606 6.568 6.722 7.38 8.276 1.2 2.298 -5.564 -4.054 -7.406 -5.882 -1.206 -1.196 -0.51 -0.662 0.62 10.532Z" stroke-width="2"></path>
      <path id="vector_15" fill="currentColor" d="M62.992 279.85c16.026 2.298 8.194 4.236 21.152 -2.268 0.718 -0.36 1.404 -0.642 1.788 -0.012 0.884 1.446 -6.392 3.878 -7.5 5.126 0.662 0.574 7.114 1.46 7.97 2.182 -0.114 0.11 -0.23 0.314 -0.348 0.318 -1.69 0.062 -2.08 0.052 -5.36 -0.378 -8.09 -1.06 -2.124 -1.722 -17.684 5.988 -0.086 0.042 -0.242 0.03 -0.318 -0.026 -0.046 -0.034 -0.048 -0.238 0.004 -0.294 3.674 -3.902 9.852 -6.612 9.704 -6.832 -0.312 -0.466 -8.294 -1.488 -10.782 -2.454 -0.568 -0.222 -0.684 -1.104 0.2 -1.248 0.68 -0.11 1.152 0.09 1.174 -0.102Z" stroke-width="2"></path>
      <path id="vector_16" fill="currentColor" d="M125.112 210.028c0.216 -0.892 1.472 -0.756 1.626 0.162 0.418 2.484 -3.364 22.15 -3.584 23.322 -0.026 0.136 -0.192 0.242 -0.294 0.36 -1.168 -1.274 1.722 -21.666 2.252 -23.844Z" stroke-width="2"></path>
      <path id="vector_17" fill="currentColor" d="M138.078 268.452c-2.748 2.186 -3.044 2.404 -3.572 1.916 -2.53 -2.342 37.98 -29.3 3.572 -1.916Z" stroke-width="2"></path>
      <path id="vector_18" fill="currentColor" d="M151.352 266.94c0.08 0.344 -3.414 1.784 -3.746 1.906 -10.076 3.706 -8.662 0.856 -6.872 0.31 0.972 -0.296 10.39 -3.19 10.618 -2.216Z" stroke-width="2"></path>
      <path id="vector_19" fill="currentColor" d="M117.54 132.776c0.226 -26.028 21.612 -19.858 22.876 8 0.952 20.97 -16.124 23.154 -21.7 1.058 -0.85 -3.368 -0.778 -4.064 -1.176 -9.058Zm21.404 7.92c-0.386 -4.684 -0.52 -9.836 -4.594 -16.72 -0.11 -0.186 -0.28 -0.328 -0.518 -0.152 -0.962 0.71 -1.93 1.386 -2.676 2.366 -5.384 7.078 -0.926 19.056 6.672 20.078 0.786 0.106 0.552 0.11 1.116 -5.572Z" stroke-width="2"></path>
      <path id="vector_20" fill="currentColor" d="M338.978 226.118c0 -0.726 0.17 -0.934 0.608 -0.956 0.616 -0.03 0.52 -0.122 2.994 8.62 0.034 0.122 0.034 0.402 -0.124 0.458 -0.46 0.164 -2.976 -5.672 -3.478 -8.122Z" stroke-width="2"></path>
      <path id="vector_21" fill="currentColor" d="M327.21 300.862c0.904 -2.756 5.446 -9.882 7.66 -12.808 0.202 -0.268 0.348 -0.718 0.854 -0.598 -0.782 3.092 -4.814 10.202 -6.352 12.994 -0.334 0.608 -0.828 1.644 -1.546 1.46 -0.786 -0.2 -0.378 -0.972 -0.616 -1.048Z" stroke-width="2"></path>
      <path id="vector_22" fill="currentColor" d="M248.01 240.424c-0.136 11.776 -13.73 16.676 -15.318 7.598 -1.636 -9.352 9.886 -18.198 14.358 -10.888 0.718 1.172 1.032 2.452 0.96 3.29Zm-5.478 -4.154c-4.276 0.238 -7.382 4.548 -8.094 8.812 -0.966 5.776 4.628 8.166 9.236 2.74 4.25 -5.006 3.044 -11.786 -1.142 -11.552Z" stroke-width="2"></path>
      <path id="vector_23" fill="currentColor" d="M255.76 269.476c-0.046 -6.634 4.596 -12 8.49 -12.994 5.376 -1.374 9.544 3.104 8.612 10.01 -1.79 13.276 -17.01 16.05 -17.102 2.984Zm15.56 -4.71c0.08 -4.098 -2.586 -7.96 -6.892 -6.416 -4.524 1.62 -7.532 7.21 -6.896 12.566 1.14 9.614 13.57 4.998 13.788 -6.15Z" stroke-width="2"></path>
      <path id="vector_24" fill="currentColor" d="M342.184 254.442c1.18 0.106 0.37 1.176 0.306 1.308 -2.282 4.64 -2.068 4.272 -3.912 11.22 -0.026 0.098 -0.008 0.586 -0.564 0.586 -1.368 0 1.716 -13.334 4.17 -13.114Z" stroke-width="2"></path>
      <path id="vector_25" fill="currentColor" d="M347.612 266.134c-0.256 0.854 -0.616 1.392 -1.146 1.252 -0.71 -0.188 0.206 -1.364 0.356 -5.092 0.06 -1.49 -0.816 -3.636 0.544 -3.622 0.53 0.006 0.676 0.192 0.744 0.65 0.388 2.628 -0.132 5.592 -0.496 6.812h-0.002Z" stroke-width="2"></path>
      <path id="vector_26" fill="currentColor" d="M229.954 270.274c1.088 -0.386 1.598 0.544 1.542 0.858 -0.134 0.756 -1.656 0.132 -2.064 1.95 -1.014 4.514 2.284 6.79 3.98 4.722 2.468 -3.01 -0.412 -5.224 -0.076 -6.286 0.588 -1.856 2.17 1.38 2.28 3.716 0.194 4.068 -3.428 6.756 -6.184 4.136 -2.884 -2.742 -2.212 -8.126 0.522 -9.096Z" stroke-width="2"></path>
      <path id="vector_27" fill="currentColor" d="M257.052 115.704c-0.084 -2.604 0.998 -4.704 2.272 -5.762 1.538 -1.278 3.724 -0.162 3.712 1.01 -0.012 1.172 -1.286 0.926 -1.41 0.866 -0.642 -0.31 -1.04 0.05 -1.296 0.53 -0.344 0.65 -0.728 1.324 -0.846 2.034 -0.502 3.036 1.258 5.862 2.99 5.356 1.32 -0.386 2.036 1.238 0.734 2.106 -2.584 1.728 -6.494 -2.2 -6.158 -6.14h0.002Z" stroke-width="2"></path>
      <path id="vector_28" fill="currentColor" d="M114.534 277.412c-1.746 -0.008 -1.918 -1.8 -0.968 -2.582 0.416 -0.344 0.982 -0.336 1.27 0.114 0.178 0.28 0.276 0.336 0.552 0.192 2.442 -1.278 1.494 2.518 -0.854 2.276Z" stroke-width="2"></path>
      <path id="vector_29" fill="currentColor" d="M369.006 219.114c3.024 -0.212 4.638 0.154 5.402 -1.422 1.46 -3.002 -3.142 -7.632 -3.936 -8.586 -5.474 -6.57 -11.084 -5.942 -10.68 -7.326 1.128 -3.868 1.384 -12.634 -1.656 -15.28 -1.224 -1.066 -4 -1.19 -5.084 -0.038 -0.526 0.56 -1.082 0.124 -3.04 0.428 -2.808 0.442 -6.956 2.332 -9.308 4.468 -4.866 4.42 -4.9 9.288 -5.716 9.428 -20.108 3.422 -25.604 12.374 -27.84 13.526 -0.306 -0.65 0.02 -1.712 -1.334 -2.552 -0.952 -0.59 1.006 -1.334 0.264 -3.38 -0.552 -1.52 7.134 0.382 18.244 -6.6 24.962 -15.692 5.466 -42.928 -15.47 -29.582 -10.4 6.634 -13.224 8.876 -19.572 8.868 -11.802 -0.012 -14.66 -1.89 -22.846 -0.246 -10.586 2.124 -9.522 9.156 -10.476 8.094 -0.836 -0.934 -1.308 -1.074 -1.202 -2.498 0.382 -5.028 -2.012 -10.014 -4.736 -14.26 -9.13 -14.248 -19.05 -16.762 -18.302 -18.274 1.032 -2.094 1.74 -3.262 0.396 -4.73 -6.09 -6.658 -17.372 -9.852 -23.54 -9.492 -1.66 0.098 -2.994 0.73 -3.648 2.39 -1.886 4.794 -0.106 -0.526 -20.562 2.862 -0.806 0.136 -0.574 -0.144 -0.424 -0.522 0.708 -1.788 1.444 0.152 3.978 -3.81 0.208 -0.322 0.348 -0.718 0.616 -0.976 0.36 -0.352 0.768 0.098 1.184 0.072 0.046 -0.004 13.3 -0.594 14.548 -0.874 3.754 -0.84 4.574 -4.302 3.184 -7.25 -0.126 -0.268 -0.158 -0.59 -0.2 -0.892 -0.324 -2.344 2.702 6.418 10.982 3.504 4.816 -1.694 3.614 -4.646 4.684 -4.74 0.36 -0.034 28.92 -2.96 30.088 -3.622 0.23 -0.132 0.32 0.034 0.408 0.166 0.718 1.036 1.66 1.834 2.748 2.438 6.732 3.732 13.11 -3.006 12.998 -12.018 -0.162 -12.982 -11.578 -16.356 -15.976 -9.602 -0.934 1.432 -1.704 1.006 -9.228 2.34 -25.28 4.476 -25.102 5.08 -25.268 4.566 -1.252 -3.838 -8.688 -3.842 -12.17 2.348 -0.386 0.68 -0.226 0.298 -3.894 0.68 -3.138 0.322 -6.718 0.918 -7.928 1.044 -1.294 0.136 -2.602 0.144 -3.898 0.288 -0.564 0.064 -0.884 -0.068 -1.226 -0.526 -3.648 -4.866 -7.916 -6.812 -12.616 -7.138 -1.464 -0.102 -1.958 0.824 -2.994 -0.412 -2.296 -2.734 -6.82 -6.62 -10.63 -7.564 -3.016 -0.748 -4.12 0.302 -6.798 2.51 -11.39 9.398 -8.196 8.316 -7.304 12.332 -0.738 0.128 -4.464 -1.262 -8.46 -1.392 -0.178 -0.004 -0.408 -0.144 -0.518 -0.292 -6.158 -8.102 -18.168 -9.716 -24.664 1.708 -5.742 10.09 -4.556 25.382 1.55 35.8 7.64 13.032 16.668 10.286 16.638 11.228 -0.05 1.52 -1.742 1.16 -2.25 1.206 -1.49 0.144 -2.026 0.54 -3.448 3.168 -1.814 3.354 -0.636 3.394 -1.418 4.306 -2.664 3.104 -2.182 5.75 -2.706 6.246 -3.89 3.698 -2.494 6.604 -3.164 6.93 -0.662 0.322 -0.464 1.114 -1.764 0.56C65.016 163.762 1.770016 220.584 10.88202 287.196c6.28 45.894 37.87198 71.878 75.44998 71.25 40.594 -0.68 79.106 -40.526 80.168 -92.59 0.004 -0.102 0.038 -0.204 0.06 -0.306 0.098 0.098 0.234 0.178 0.284 0.298 5.882 14.04 8.914 25.12 19.13 25.82 1.184 0.08 2.858 -0.356 2.454 -1.962 -0.582 -2.296 -1.346 -0.276 14.706 1.248 1.652 0.156 5.304 0.302 6.42 0.488 2.5 0.416 2.612 -0.234 3.04 0.208 0.664 0.688 3.01 8.248 14.96 8.196 63.726 -0.258 63.058 -2.65 63.712 -1.092 7.856 18.69 18.15 29.498 38.516 31.62 11.988 1.248 27.17 -6.566 32.954 -12.864 12.498 -13.61 17.534 -31.106 18.864 -49.532 1.278 -17.67 -1.188 -35.612 -12.6 -48.866l0.006 0.002ZM259.562 105.32c4.548 -0.226 7.664 5.87 7.728 11.53 0.088 7.61 -5.754 12.83 -10.6 9.152 -7.146 -5.428 -5.062 -20.286 2.872 -20.682Zm98.318 84.046c0.782 1.958 1.49 4.938 0.624 11.866 -0.124 1.002 -0.522 0.258 -2.702 -0.026 -0.48 -0.064 -0.48 -0.306 -0.442 -0.646 0.416 -3.694 0.998 -9.282 -0.976 -12.49 -0.318 -0.514 2.126 -2.132 3.496 1.296Zm-7.38 -0.594c1.64 -0.332 2.258 -0.12 2.628 0.752 1.278 3.006 0.87 9.958 0.914 10.426 0.168 1.826 -0.11 0.11 -9.364 0.188 -6.26 0.05 -5.652 0.484 -7.894 0.336 2.382 -5.772 6.366 -10.228 13.716 -11.702Zm-43.86 28.474c3.538 -3.168 8.064 -7.664 14.642 -10.416 14.954 -6.258 31.872 -5.644 41.354 -1.126 6.358 3.028 11.208 10.79 9.288 11.144 -1.904 0.352 -6.668 -0.812 -20.912 -0.798 -17.678 0.018 -23.764 13.48 -26.38 12 -20.166 -11.386 -18.668 -10.2 -17.994 -10.804h0.002Zm40.824 8.476c-0.012 -0.118 -0.204 -0.22 -0.314 -0.332 -0.578 0.738 0.126 0.03 -1.804 11.296 -0.466 2.734 -0.394 2.802 -0.85 2.544 -18.268 -10.298 -16.944 -9.244 -16.476 -9.806 6.034 -7.236 13.988 -10.54 18.018 -10.6 1.108 -0.016 2.152 0.314 3.172 0.666 8.472 2.948 13.818 12.83 16.188 21.556 0.348 1.282 0.158 0.178 -7.832 7.024 -0.17 0.144 -0.238 0.162 -0.328 -0.094 -0.348 -1.006 -1.01 -1.746 -1.95 -2.264 -0.484 -0.268 -0.424 -0.632 -2.888 -2.056 -5.97 -3.452 -5.754 -2.904 -5.614 -3.962 0.964 -7.228 1.062 -9.622 0.676 -13.976l0.002 0.004Zm-87.388 -28.886c20.21 9.394 75.162 2.424 66.464 -20.116 -1.588 -4.114 -5.156 -5.012 -6.332 -5.788 2.328 -0.87 6.726 0.522 9.81 3.766 3.252 3.428 5.418 8.982 2.888 14.65 -1.89 4.234 -5.708 8.116 -10.178 11.144 -13.398 9.076 -51.268 7.798 -61.02 -0.116 -2.676 -2.17 -3.388 -4.356 -1.63 -3.542l-0.002 0.002Zm-5.668 -7.21c0.54 0.374 1.414 1.444 1.364 2.102 -0.43 5.356 3.448 9.942 8.34 12.166 10.12 4.604 18.086 3.906 22.248 4.526 1.066 0.162 -0.034 0.106 34.908 19.768 34.874 19.62 34.61 18.808 34.16 20.822 -0.398 1.788 -2.258 4.374 -4.666 3.24 -4.964 -2.34 -62.25 -31.32 -82.46 -40.998 -2.37 -1.134 -2.458 -0.148 -2.136 0.196 1.298 1.392 2.504 0.756 1.274 1.98 -2.154 2.136 -2.084 4.056 -2.498 7.938 -0.098 0.938 -1.15 -0.084 -5.228 1.974 -0.476 0.242 -0.23 -0.34 -0.068 -1.028 0.632 -2.726 0.496 -3.048 1.368 -3.172 0.836 -0.118 1.358 -1.006 2.548 -3.95 1.88 -4.654 1.698 -4.29 2.098 -5.94 0.06 -3.996 -20.812 -9.156 -21.436 -9.474 1.562 -1.732 7.746 -1.838 10.188 -10.15h-0.004Zm29.14 94.13c-4.91 -1.988 -8.77 -4.938 -8.816 -5.364 -0.076 -0.726 2.428 -3.47 3.38 -8.978 0.272 -1.554 0.5 1.024 5.502 2.846 5.668 2.064 17.156 1.774 28.784 1.214 11.044 -0.53 37.714 -2.922 40.364 -3.274 2.246 -0.296 3.592 -0.416 4.424 -0.148 1.222 0.39 2.03 1.848 2.03 4.192 0 1.49 -0.518 1.806 -1.262 2.03 -11.922 3.612 -62.656 12.248 -74.41 7.482h0.004Zm66.378 -3.958c-0.12 0.412 -2.254 3.414 -3.292 4.264 -4.688 3.838 -8.108 3.084 -11.526 -0.922 -0.476 -0.556 -0.212 -0.292 8.17 -1.962 3.114 -0.62 6.07 -1.33 6.648 -1.38Zm-83.99 6.68c-2.998 0 1.612 0.1 6.366 -5.13 1.048 -1.16 1.154 -1.678 1.524 -1.266 2.836 3.18 7.036 4.744 8.014 5.482 -1.27 0.284 -6.472 -0.056 -15.904 0.914Zm-31.48 0.36c3.606 -2.144 4.37 -2.57 6.6 -7.52 1.24 1.508 1.626 4.234 5.674 6.76 0.87 0.544 0.216 0.32 -8.808 0.654 -1.916 0.07 -0.858 0.28 -3.466 0.106Zm-23.136 -44.82c-5.946 3.05 -5.426 4.752 -6 3.312 -4.628 -11.606 -4.77 -11.538 -4.358 -11.712 1.418 -0.6 7.406 -5.584 11.002 -9.516 2.778 -3.036 -6.714 2.986 -11.818 8.222 -0.022 -0.042 -4.404 -10.072 -6.756 -12.596 -0.628 -0.67 1.066 -1.64 13.8 -12.514 7.924 -6.77 -4.564 1.048 -13.572 9.024 -1.274 1.126 -1.388 2.018 -1.838 1.46 -3.13 -3.86 -7.606 -7.032 -9.628 -10.804 -0.424 -0.794 -0.334 -0.328 5.054 -5.172 1.25 -1.126 1.876 -2.332 0.396 -1.554 -6.858 3.584 -6.188 5.254 -6.834 3.988 -2.714 -5.316 -5.97 -13.042 -6.022 -13.556 -0.102 -1.084 9.458 9.054 37.748 11.636 0.574 0.05 0.476 0.178 0.432 2.458 -0.038 2.034 0.23 5.146 2.04 5.992 0.824 0.386 -0.162 0.408 0.132 4.468 0.322 4.502 0.234 7 2.196 7.86 0.93 0.408 -0.246 0.242 0.344 5.52 0.186 1.682 1.262 1.504 0.56 2.468 -6.986 9.648 -6.022 19.186 -1.032 25.68 3.156 4.106 4.862 3.698 3.886 4.242 -2.148 1.202 -4.434 2.302 -5.984 6.74 -0.492 1.41 0.408 4.664 -8.628 -19.45 -0.174 -0.462 -0.136 -0.506 0.328 -0.832 3.138 -2.208 7.44 -6.846 4.552 -5.364ZM164.57 187.632c-0.234 0.862 -1.418 4.068 -1.834 4.464 -1.524 1.456 -1.26 4.048 -2.926 6.416 -0.438 0.628 -1.058 1.13 -1.622 1.666 -0.54 0.514 -4.004 -3.44 -12.778 -6.042 -2.186 -0.65 -0.224 -4.382 1.134 -5.92 0.276 -0.31 0.914 -0.2 1.486 -0.038 6.116 1.742 8.136 3.438 10.286 3.784 0.304 0.048 2.168 -0.346 0.52 -1.584 -2.326 -1.746 -7.732 -3.824 -10.418 -4.26 -0.404 -0.064 -0.454 -0.29 -0.404 -0.586 0.268 -1.534 1.478 -3.882 1.698 -4.166 0.396 -0.51 0.51 -0.544 1.146 -0.34 6.336 2 8.082 3.41 13.484 5.058 1.626 0.498 -0.934 -3.524 -12.51 -6.85 -0.658 -0.188 -0.862 -0.522 -0.726 -1.224 0.064 -0.306 0.114 -0.628 0.25 -0.908 2.408 -4.994 0.816 -5.772 12.336 -0.552 2.896 1.312 3.9 1.906 3.868 4.114 -0.038 2.672 -2.65 5.704 -2.99 6.968Zm0.25 4.964c0.222 0.276 1.422 3.784 1.67 5.198 0 0.922 0.106 1.07 -0.79 1.316 -2.76 0.756 -2.484 0.688 -3.61 -0.19 -0.068 -0.052 -0.046 -0.276 0 -0.392 0.268 -0.646 1.08 -1.838 1.18 -3.566 0.018 -0.302 0.064 -0.518 0.37 -0.676 0.764 -0.39 0.738 -1.292 1.18 -1.69Zm-9.444 14.858c-1.754 1.464 -1.406 -0.242 -6.468 -2.526 -6.872 -3.1 -8.272 -3.448 -7.874 -4.816 0.378 -1.288 0.91 -2.514 1.634 -3.644 0.26 -0.398 0.548 -0.552 1.138 -0.434 2.242 0.446 4.404 1.108 6.494 2.042 7.372 3.292 7.618 2.67 7.592 3.728 -0.238 1.49 -1.406 4.718 -2.518 5.648l0.002 0.002Zm1.086 2.8c-0.196 0.836 -1.36 6.23 -2.164 7.414 -0.098 -0.132 -0.204 -0.254 -0.292 -0.39 -1.742 -2.714 -1.932 -2.76 -1.648 -3.364 1.384 -2.916 1.61 -3.61 1.842 -3.584 1.134 0.114 2.39 -1.372 2.262 -0.076Zm-26.196 47.508c-0.88 -0.408 -4.004 -2.552 -9.89 -4.814 -0.81 -0.31 -2.11 2.802 21.544 -47.47 0.492 -1.044 0.258 -1.172 1.496 -0.552 2.514 1.266 5.048 2.492 7.534 3.814 1.546 0.824 1.274 0.518 0.654 1.936 -0.022 0.046 -20.418 45.824 -21.338 47.086Zm-16.39 4.252c-0.532 -0.162 -0.642 -0.156 -0.522 -0.424 3.142 -6.94 3.256 -7.418 4.374 -7.236 3.95 0.642 7.56 2.61 10.914 4.756 2.188 1.4 1.698 1.738 -1.202 8.498 -0.102 0.238 -0.2 0.84 -0.654 0.518 -2.778 -1.958 -8.182 -4.682 -12.91 -6.112Zm9.274 9.904c-3.504 7.036 -6.532 10.272 -7.742 11.806 -2.106 2.666 -6.884 2.072 -6.884 -4.426 -0.158 -2.424 0.9 -4.216 3.958 -11.958 1.224 -3.092 0.968 -3.368 1.508 -3.152 4.552 1.838 9.36 4.29 10.212 4.798 0.646 0.382 0.082 0.658 -1.052 2.93v0.002Zm16.766 -84.294c-0.132 -1.324 0.696 -0.952 1.312 -2.472 2.082 -5.134 1.24 -4.634 2.178 -5.186 0.62 -0.366 0.878 -1.082 1.18 -1.72 0.82 -1.74 2.23 -4.242 1.202 -6.162 -0.706 -1.312 -0.284 -1.448 3.652 -10.052 1.214 -2.654 0.942 -2.166 1.282 -2.624 0.574 0.586 4.42 7.674 5.036 8.838 0.446 0.84 0.874 0.776 0.874 1.002 -0.008 0.34 -0.378 0.878 -0.46 1.156 -0.472 1.594 -3.2 -0.684 -5.08 2.506 -0.574 0.976 -1.932 3.176 -2.208 4.756 -0.412 2.348 -1.562 2.138 -2.968 6.9 -0.014 0.046 -0.242 1.368 -1.054 2.328 -1.358 1.614 -2.786 4.306 -2.586 6.4 0.102 1.044 -0.782 0.264 -2.328 3.5 -0.916 1.92 -0.778 2.472 -1.236 2.08 -2.83 -2.4 -2.802 -2.17 -2.616 -2.768 0.942 -3.04 0.714 -3.194 1.188 -3.648 2.052 -1.958 2.65 -4.628 2.628 -4.832l0.004 -0.002Zm3.864 -18.288c-0.22 0.498 -0.658 0.094 -1.618 -0.458 -1.388 -0.802 -1.742 -0.65 -6.688 -2.832 -0.442 -0.19 -0.4 -0.2 -0.226 -0.696 0.396 -1.142 0.934 -2.114 2.302 -2.25 3.614 -1.674 6.31 -4.734 7.788 -7.762 0.272 -0.56 0.4 -0.468 1.928 -1.194 0.438 0.336 0.08 -0.068 1.992 2.416 0.434 0.564 0.008 0.396 -5.478 12.776Zm9.314 -17.776c11.186 -4.802 10.438 -5.588 11.182 -4.888 1.1 1.04 1.336 1.082 2.064 1.944 -0.424 1.062 0.026 0.022 -8.068 17.348 -0.612 1.304 0.242 1.958 -5.928 -8.782 -1.396 -2.424 -1.804 -2.612 -2.586 -3.546 -0.378 -0.454 -0.694 -0.348 3.336 -2.076Zm13.242 23.654c-1.5 -0.866 -2 -0.93 -8.018 -3.474 -0.772 -0.322 -0.568 -0.2 2.086 -5.954 12.638 -27.398 12.446 -27.322 13.054 -27.2 0.042 0.008 6.484 1.868 9.296 3.698 -0.054 0.128 -0.088 -0.004 -14.964 32.47 -0.458 0.998 -0.484 1.016 -1.452 0.458l-0.002 0.002Zm67.696 46.964c-3.146 0.254 -3.138 0.356 -3.152 0.174 -12.69 -0.378 -13.416 -0.518 -13.652 -2.192 -0.242 -1.682 -0.306 -4.378 -0.476 -7.05 -0.082 -1.29 -0.544 -2.034 0.246 -1.95 6.59 0.722 15.594 0.268 16.792 0.42 1.266 0.166 0.866 0.522 0.844 1.07 -0.352 8.986 0.382 9.446 -0.602 9.528Zm-0.394 -12.09c-10.202 0.018 -10.378 0.646 -16.762 -0.366 -3.316 -0.526 -1.708 -2.99 -2.594 -7.352 1.89 -0.204 4.968 0.09 9.492 0.042 2.922 -0.03 8.752 -0.526 11.428 -0.636 0.026 1.35 -0.016 0.152 -0.148 8.136 -0.008 0.638 -0.458 0.174 -1.414 0.174l-0.002 0.002Zm-14.1 18.612c-0.2 -0.612 -0.662 -4.714 -0.332 -5.074 0.14 -0.152 0.628 0.018 0.964 0.026 0.778 0.016 1.554 0.012 2.328 0.038 7.624 0.246 4.37 -0.434 -0.462 3.414 -2.14 1.708 -2.268 2.31 -2.498 1.596Zm13.064 56.48c-9.072 1.358 -13.9 -13.44 -5.28 -19.288 2.774 -1.882 6.396 -1.448 8.468 0.234 6.824 5.534 5.5 17.756 -3.188 19.054Zm3.364 -21.394c0.998 -0.522 1.248 0.056 5.694 -1.89 0.2 0.344 0.154 0.03 -0.268 1.184 -2.708 7.444 0.654 4.722 -5.164 1.07 -0.118 -0.072 -0.178 -0.242 -0.262 -0.366v0.002Zm-9.424 -9.334c-5.874 -9.062 1.21 -23.642 12.158 -26.016 5.954 -1.292 10.604 1.078 12.548 4.798 9.686 18.532 -15.712 35.086 -24.708 21.216l0.002 0.002Zm38.376 -27.378c0.028 7.84 1.142 17.818 1.694 20.376 0.328 1.524 -5.044 -2.462 -12.574 1.52 -1.992 1.058 4.768 -7.33 -1.928 -18.57 -0.05 -0.084 -0.042 -0.366 0.196 -0.292 1.16 0.344 2.344 0.416 3.55 0.396 0.726 -0.008 1.18 -0.336 1.504 -0.96 2.726 -5.278 -1.054 -3.244 7.024 -5.902 0.684 -0.222 0.524 -0.026 0.536 3.436l-0.002 -0.004Zm-5.958 -7.644c-2.468 8.714 -2.088 7.512 -2.806 8.876 -0.362 0.688 -0.458 0.472 -5.538 -0.408 -1.894 -0.328 -3.01 -4.926 -14.66 -5.976 -0.102 -2.004 0.022 -8.968 0.292 -9.658 0.042 0.012 16.06 4.668 19.53 5.784 3.168 1.024 3.312 0.922 3.18 1.38l0.002 0.002Zm5.652 31.596c11.972 -0.968 16.8 17.126 7.028 28.292 -5.588 6.382 -14.24 7.938 -19.102 1.3 -7.512 -10.256 0.344 -28.646 12.074 -29.592Zm61.662 -8.552c0.004 -0.748 -0.574 -0.824 7.39 3.156 4.428 2.212 4.25 1.958 3.818 2.412 -4.552 4.77 -3.58 6.782 -4.812 5.852 -6.68 -5.042 -6.4 -4.604 -6.392 -5.39 0.022 -1.568 -0.008 -4.744 -0.004 -6.03Zm5.776 13.144c0.764 0.574 0.124 0.06 -1.482 6.692 -0.578 2.39 0.144 2.782 -1.16 2.748 -7.296 -0.772 -7.224 -0.046 -6.544 -1.248 2.616 -4.624 3.024 -11.412 3.3 -12.714 1.282 0.876 3.402 2.672 5.886 4.522Zm-2.17 14.336c-0.046 0.99 0.068 0.442 -7.066 1.1 -0.836 0.076 -6.188 0.568 -7.088 0.276 0.352 -0.45 1.13 -1.112 5.08 -4.922 0.726 -0.696 4.116 0.056 8.764 -0.212 0.306 -0.018 0.548 0.148 0.484 0.396 -0.292 1.112 -0.124 2.24 -0.174 3.362Zm-6.892 -10.242c-0.466 1.436 -1.006 1.596 -1.698 1.596 -3.966 -0.012 -11.556 -1.15 -15.454 -1.876 -9.554 -1.784 -16.766 -3.08 -18.838 -7.496 -2.608 -5.558 -6.14 -29.896 -5.852 -32.376 0.56 0.148 0.03 -0.056 35.688 17.738 7.372 3.678 7.686 3.46 7.704 4.638 0.05 3.788 1.218 9.21 -1.55 17.776Zm-38.724 -9.928c0.734 2.934 1.834 5.224 4.764 7.046 6.528 4.06 31.858 6.4 31.906 6.412 -0.06 0.594 -0.544 1.194 -1.554 2.238 -3.282 3.406 -5.006 4.972 -5.83 5.72 -0.824 0.748 -1.156 0.442 -1.516 0.45 -18.33 0.416 -26.94 1.3 -33.212 -4.862 -0.982 -0.964 1.274 -6.964 -3.784 -13.488 -1.232 -1.588 -4.602 -3.924 -6.498 -4.594 -0.706 -0.25 -0.106 -0.51 -0.224 -1.992 -0.068 -0.836 -1.742 -13.856 -1.394 -24.668 0.188 -5.776 0.918 -6.51 2.698 -8.208 0.314 -0.306 1.024 0.25 2.802 1.164 6.378 3.274 6.25 3.16 6.4 3.24 1.25 0.684 0.476 1.044 1.01 6.396 0.424 4.238 2.226 16.324 4.434 25.148l-0.002 -0.002Zm69.658 18.124c-0.098 0.45 0.008 0.29 -6.84 1.002 -16.966 1.77 -15.692 1.74 -15.666 0.756 0.2 -7.572 2.144 -15.374 7.406 -20.822 0.334 -0.348 0.594 -0.344 1.006 -0.136 9.352 4.726 9.682 4.868 11.678 5.588 1.062 0.386 1.394 -0.458 1.656 0.488 1.444 5.212 1.436 10.134 0.76 13.124Zm-90.568 -59.114c1.01 0.578 1.172 0.306 -1.834 7.19 -0.79 1.81 -1.214 2.14 -3.458 1.308 -7.92 -2.946 -21.726 -6.34 -21.65 -7.04 0.612 -5.768 0.14 -8.29 0.416 -8.718 0.068 -0.106 -0.004 -0.034 3.042 -0.654 0.404 -0.08 16.52 3.934 23.484 7.914Zm-56.77 -65.916c1.54 -2.994 16.422 0.2 23.658 7.13 0.802 0.768 0.424 1.04 -0.23 3.062 -0.476 1.47 -5.054 -4.744 -24.014 -8.562 -0.518 -0.102 -0.052 -0.39 0.586 -1.63Zm34.25 42.088c1.192 0.028 1.264 1.116 -0.156 1.14 -12.138 0.204 -45.794 -7.74 -61.958 -16.892 -0.944 -0.532 -0.264 -1.538 0.622 -1.172 0.418 0.172 30.426 12.754 61.492 16.924ZM188.056 133.742c-0.458 3.542 -1.63 5.062 -3.172 7.492 -2.15 -1.422 -3.042 -2.11 -7.848 -3.686 -1.33 -0.438 -2.62 -0.994 -4.04 -1.146 -0.536 -0.06 -0.602 -0.264 -0.458 -0.798 0.942 -3.512 2.034 -5.288 3.524 -7.114 1.124 -1.376 11.074 3.036 11.994 5.252Zm-0.06 -3.112c-7.908 -4.756 -9.152 -3.304 -8.412 -4.276 0.81 -1.066 -0.004 -1.436 2.612 -1.376 1.826 0.162 3.996 0.904 5.908 2.29 0.976 0.706 0.726 0.284 -0.106 3.364l-0.002 -0.002Zm4.098 6.91c-2.604 0.056 -2.666 0.114 -2.548 -0.318 0.828 -2.964 0.756 -3.534 0.412 -4.506 -0.186 -0.522 -0.038 -0.446 2.628 -0.714 1.618 -0.162 1.52 -0.332 1.966 0.57 2.872 5.776 7.342 4.756 -2.458 4.968Zm4.544 -5.694c-0.144 -0.258 -0.272 -0.522 0.224 -0.53 0.292 -0.004 0.25 -0.332 0.778 0.12 0.124 0.102 -0.03 2.412 3.27 2.87 3.932 0.548 4.68 -1.538 4.79 -0.396 0.326 3.364 -5.326 4.616 -9.062 -2.064Zm23.854 -1.822c-0.494 0.88 -1.13 1.61 -2.098 2 -1.108 0.45 -2.23 0.862 -3.47 0.904 -4.148 -0.858 -4.616 -2.59 -6.492 -4.888 -1.01 -1.236 2.666 -1.542 6.314 -2.564 0.934 -0.26 0.292 0.438 1.874 2.25 2.03 2.332 4.52 1.142 3.872 2.298Zm-13.038 -11.118c1.004 -5.154 5.636 -7.568 9.3 -5.224 0.416 0.268 -0.446 0.54 -1.18 1.478 -1.474 1.89 -0.598 3.604 -1.58 3.66 -6.154 0.352 -6.748 1.152 -6.54 0.086Zm7.5 1.444c4.068 -0.348 14.502 -1.508 16.926 -1.984 2.594 -0.506 2.906 -2.11 5.482 -2.578 2.578 -0.468 2.804 0.918 2.782 2.836 -0.012 1.1 -0.658 2.468 -2.314 3.288 -2.646 1.308 -3.028 -1.912 -7 -1.006 -0.23 0.05 -4.268 0.166 -12.978 2 -9.13 1.92 -10.974 1.864 -11.912 4.948 -0.602 1.988 -1.116 4.056 -2.536 4.332 -2.844 0.552 -3.918 -0.526 -4.05 -1.936 -0.132 -1.384 1.784 -5.044 2.356 -6.018 1.49 -2.54 3.44 -3.04 13.242 -3.88l0.002 -0.002Zm-10.078 -1.678c1.486 -0.178 0.76 1.1 0.386 1.214 -2.102 0.646 -5.458 1.792 -7.376 8.688 -0.11 0.394 -0.17 0.972 -0.794 0.878 -0.802 -0.12 -1.452 0.378 -1.754 -0.462 -0.844 -2.366 -2.506 -6.272 -3.792 -8.434 -0.446 -0.744 -0.834 -0.164 13.33 -1.884Zm-15.908 2.072c2.26 3.95 2.522 4.48 4.196 8.622 0.238 0.582 -0.162 0.484 -2.272 0.768 -0.024 0.014 -0.124 0.048 -0.22 0.038 -0.692 -0.06 0.79 -1.788 -0.174 -3.354 -1.962 -3.194 -10.162 -5.524 -12.078 -2.306 -0.334 0.564 -0.514 1.224 -0.76 1.838 -0.636 0.166 -1.288 0.292 -1.902 0.51 -2.782 0.986 -4.808 6.102 -5.384 9.254 -0.344 1.89 1.206 1.538 0.768 2.586 -0.4 0.956 0.038 0.072 -3.414 7.126 -0.442 0.904 -0.386 0.62 -1.266 -0.174 -0.254 -0.234 -0.702 -0.442 -0.722 -0.692 -0.072 -0.794 2.068 -0.166 2.612 -9.21 0.212 -3.58 -1.006 -4.242 0.102 -5.024 3.08 -2.17 4.552 -3.682 9.908 -8.586 1.016 -0.93 0.998 -1.746 1.042 -2.734 0.038 -0.878 0.706 0.476 6.5 0.734 2.68 0.124 2.778 0.102 3.066 0.608l-0.002 -0.004ZM186.8 118.026l-0.504 0.172c-2.132 -0.264 -4.146 -0.256 -6.078 -0.83 -1.46 -0.434 -1.392 -0.45 -2.022 -1.572 -0.76 -1.362 -1.644 -2.62 -2.094 -3.41 0.396 -0.144 7.262 0.756 10.698 5.64Zm-35.236 -6.196c3.724 -3.732 2.816 -2.832 6.178 -5.796 1.618 -1.428 2.17 -2.17 4.09 -2.298 2.42 0.782 4.396 1.682 6.76 3.78 4.412 3.912 8.046 7.288 8.84 12.452 0.102 0.654 -0.292 0.708 -9.066 9.194 -0.442 0.428 -0.518 0.908 -0.7 0.36 -1.342 -4.004 -1.496 -5.39 -3.47 -7.72 -9.012 -10.646 -13.646 -8.952 -12.632 -9.972Zm-0.976 8.094c5.206 1.282 10.638 2.412 12.722 5.02 2.862 3.58 4.196 9.418 2.26 16.196 -0.998 3.492 -4.484 4.718 -17.2 10.528 -2.234 1.02 -1.732 1.486 -0.484 -3.678 1.634 -6.766 0.82 -17.806 -3.92 -27.018 -0.598 -1.156 -1.376 -2.182 -1.642 -2.816 0.738 0.042 7.146 1.49 8.264 1.766v0.002ZM126.416 159.778c-8.248 -5.202 -12.43 -17.382 -12.302 -27.082 0.186 -14.184 8.718 -26.036 19.976 -19.572 6.182 3.546 10.17 11.27 11.8 18.21 4.736 20.18 -7.294 36.126 -19.474 28.444Zm-3.418 25.072c0.238 -1.396 0.828 -2.676 1.75 -3.784 0.34 -0.404 0.786 -0.328 1.176 -0.216 5.058 1.446 7.314 2.888 9.062 3.376 0.742 0.208 1.266 -1.01 0.528 -1.526 -2.216 -1.546 -5.936 -2.966 -8.112 -3.476 -0.726 -0.17 -1.418 -0.064 -1.214 -0.878 0.318 -1.27 0.87 -2.446 1.528 -3.572 0.514 -0.878 0.264 -0.662 13.076 4.222 0.844 0.322 1.774 -0.862 -5.904 -4.286 -1.664 -0.744 -3.346 -1.46 -5.156 -1.804 -0.616 -0.114 -0.956 -0.658 -0.764 -1.262 0.438 -1.376 1.002 -2.696 1.838 -3.89 0.352 -0.506 0.84 -0.654 1.388 -0.522 1.66 0.394 1.572 0.196 7.254 2.772 2.214 1.006 4.668 1.804 4.332 3.748 0.468 2.182 -2.206 5.244 -2.65 6.81 -0.552 1.94 -1.53 3.792 -1.614 3.882 -1.758 1.822 -0.952 4.816 -3.932 7.172 -0.848 0.672 0.082 -0.162 -6.67 -3.294 -2.056 -0.956 -2.196 -1.24 -4.96 -1.992 -0.744 -0.204 -1.118 -0.528 -0.956 -1.48Zm6.008 5.342c6.294 2.876 6.09 1.83 6.078 3.278 -0.008 0.094 0.012 0.28 -0.042 0.442 -1.044 2.99 0.768 0.972 -12.864 -5.784 0.696 -0.45 5.652 1.524 6.828 2.064Zm-74.274 43.4c-4.144 4.04 -12.358 7.754 -15.71 8.074 -0.66 0.064 -0.822 0.094 -0.958 0.508 -2.916 8.858 -3.366 10.864 -4.84 21.466 -0.098 0.676 0.028 0.792 0.028 0.792s0.056 0.01 0.138 -0.024c6.872 -2.844 14.078 -8.71 16.3 -8.73 0.126 0 0.22 0.11 0.202 0.23 -0.306 1.982 -10.96 9.62 -14.694 10.936 -2.338 0.828 -2.168 0.352 -2.246 1.136 -0.754 7.588 0.992 25.088 2.004 25.998 8.572 -5.69 13.356 -11.022 14.348 -9.976 0.39 0.412 0.08 0.732 -0.07 0.884 -0.686 0.686 -4.952 6.598 -12.996 11.69 -0.396 0.25 -0.77 0.488 -0.828 0.56 -0.064 0.168 0.05 0.486 0.16 0.794 1.26 3.504 0.622 5.562 7.394 21.842 0.13 0.38 0.25 0.45 0.284 0.464 0.78 0.31 7.572 -9.53 7.774 -9.658 0.326 -0.202 0.872 0.046 0.732 0.514 -3.038 10.168 -7.766 10.96 -7.08 12.334 3.528 7.06 4.85 7.258 3.952 8.354 -0.604 0.732 -1.264 0.678 -1.9 0.006 -0.192 -0.204 -0.272 -0.486 -0.376 -0.698 -3.54 -6.9 -3.386 -7.038 -3.944 -6.91 -4.492 1.072 -16.442 -6.406 -15.19 -7.682 0.956 -0.974 9.626 4.692 14.154 5.01 0.056 0.004 0.092 0.002 0.114 0 -0.076 -0.64 -4.822 -9.408 -8.178 -23.278 -0.128 -0.508 -0.126 -0.516 -0.29 -0.5 -2.624 0.154 -4.354 -1.296 -10.764 -6.68 -6.19598 -5.202 -6.30798 -5.352 -4.78398 -6.334 0.078 -0.05 0.18 -0.042 0.246 0.022 2.29198 1.33 9.18598 7.246 12.70798 9.436 0.506 0.314 2.206 0.956 2.118 0.47 -1.73 -9.238 -2.652 -17.018 -1.906 -27.242 0.06 -0.826 -1.294 0.65 -10.57 -14.652 -0.33398 -0.554 -0.31398 -0.958 0.06 -1.206 0.962 -0.632 0.74 -0.606 9.608 10.734 3.174 4.058 -1.098 -0.382 6.116 -20.572 0.468 -1.3 -0.714 -0.518 -1.758 -3.548 -1.236 -3.576 -2.476 -8.18 -3.106 -10.606 0 0 -0.458 -1.82 0.308 -2.278 1.614 -0.964 1.57 1.82 5.466 12.092 0.246 0.648 0.362 0.736 0.392 0.748 0.17 -0.058 0.556 -0.99 1.006 -2.068 3.23 -7.76 7.674 -14.728 9.438 -16.812 0.958 -1.138 0.806 -1.136 0.51 -1.624 -0.296 -0.494 -0.748 -1.238 -0.856 -2.628 -0.292 -3.76 -0.314 -7.042 -0.068 -9.75 0.104 -1.082 1.498 -1.234 1.934 -0.222 0.416 0.962 0.756 9.22 0.862 9.682 0.104 0.306 0.21 0.618 0.318 0.928 1.304 -1.276 7.276 -9.618 18.85 -17.004 1.566 -1.002 2.544 0.046 1.078 1.116 -7.268 5.314 -14.976 13.112 -16.6 15.37 2.842 -0.604 14.574 -6.536 15.564 -4.372 0.026 0.056 0.046 0.148 0 0.264 -0.286 0.724 -4.21 2.66 -11.664 5.76 -1.952 0.812 -4.352 1.808 -6.424 2.066 -0.486 0.06 -0.514 0.064 -0.874 0.554 -6.458 8.822 -10.464 17.728 -10.776 19.292 4.556 -0.908 15.056 -6.65 15.626 -5.812 0.152 0.226 -0.096 0.498 -0.342 0.74Zm35.752 107.44c-17.284 -4.892 -27.984 -22.082 -32.028 -39.48 -14.908 -64.142 39.452 -125.994 77.778 -89.724 0.806 0.76 0.738 0.216 -1.492 5.066 -10.772 23.342 -16.162 35.028 -16.17 35.056 -0.582 1.698 -2.25 -1.47 -4.91 4 -0.454 0.93 -1.6 3.452 -2.242 5.228 -0.74 2.042 1.138 1.928 0.658 2.836 -3.388 6.43 -6.14 12.276 -5.636 17.402 0.548 5.55 6.494 8.112 10.74 3.21 2.836 -3.274 5.062 -6.944 7.148 -10.706 1.694 -3.058 1.316 -3.992 2.126 -3.61 1.584 0.744 2.528 -0.71 3.228 -2.404 1.104 -2.662 2.616 -5.874 2.234 -7.572 -0.336 -1.496 -0.216 -1.422 5.338 -13.62 9.214 -20.23 8.59 -18.69 9.356 -20.21 2.93 5.258 5.55 14.068 6.484 19.688 9.422 56.608 -28.882 104.382 -62.612 94.836v0.004Zm120.52 -51.456c-2.866 0.19 -15.934 -1.168 -21.816 -2.544 -1.668 -0.39 -2.224 -1.172 -2.378 -1.566 -6.718 -17.62 -9.976 -25.234 -10.93 -29.196 0.31 -0.004 12.278 2.026 17.628 2.378 3.49 0.23 4.046 -0.412 4.34 0.242 1.122 2.494 1.864 4.116 4.582 10.608 1.53 3.648 1.652 3.814 1.086 3.724 -1.572 -0.246 -19.542 -2.294 -20.85 -1.69 -2.494 1.146 17.142 3.108 19.934 3.3 1.988 0 1.882 -0.198 2.208 0.722 3.546 9.97 7.368 13.946 6.196 14.022Zm-37.57 -64.158c2.03 0.182 3.924 0.534 5.33 0.616 3.122 0.178 3.1 0.042 3.522 0.564 3.618 4.536 7.124 11.798 8.072 15.038 -0.67 -0.004 -11.474 -1.902 -18.52 -1.61 -0.296 0.012 -0.45 0.124 -0.442 0.158 0.084 0.458 0.3 0.408 0.548 0.496 1.944 0.714 17.7 3.508 18.652 2.332 0.332 -0.408 0.352 -0.318 2.586 4.9 0.022 0.042 3.194 7.436 3.8 9.208 -2.5 -0.056 -12.524 -1.72 -18.592 -1.792 -2.084 -0.026 -2.638 0.65 -2.956 -0.36 -6.324 -20.086 -5.886 -18.83 -8.914 -30.16 -0.196 -0.734 0.08 -0.01 6.914 0.61Zm-7.152 -2.234c-0.504 -2.464 -0.748 -5.474 -0.2 -7.75 0.06 -0.254 1.558 -6.302 1.916 -6.73 0.556 0.536 0.892 2.068 4.286 6.038 6.872 8.042 8.468 9.44 7.61 9.33 -13.444 -1.698 -13.46 -0.148 -13.612 -0.888Zm106.366 73.548c-18.694 0.714 -26.422 0.362 -31.876 0.654 -27.57 1.486 -24.312 0.654 -39.416 -35.29 -12.298 -29.264 -13.394 -33.692 -25.28 -45.978 -8.264 -8.54 -9.066 -15.138 -12.098 1.206 -1.654 8.914 18.294 62.502 21.39 69.84 1.07 2.544 1.35 2.82 0.658 2.744 -1.584 -0.174 -4.076 -1.126 -6.39 -3.032 -5.206 -4.29 -11.95 -24.13 -12.548 -24.78 -1.486 -1.614 0.57 -19.322 -11.002 -41.12 -0.982 -1.848 -1.092 -1.69 -0.812 -2.102 2.94 -4.352 3.152 -12.48 3.38 -12.982 0.598 -1.316 1.014 -2.7 1.188 -4.128 0.09 -0.738 0.702 -0.922 1.058 -1.362 0.272 -0.34 0.774 2.132 5.652 0.162 1.292 -0.522 1.652 -1.126 1.666 -2.39 0.016 -1.988 -0.99 -4.446 -2.182 -7.424 -0.324 -0.806 -0.04 -0.764 0.242 -2.756 0.144 -1.04 0.798 -0.06 1.86 -2.29 0.824 -1.736 1.134 -2.888 1.558 -3.354 0.302 0.434 0.56 1.368 1.742 4.34 9.762 24.528 10.66 23.814 16.184 29.396 6.902 6.964 9.824 14.12 18.512 36.462 13.67 35.154 13.828 35.884 24.63 36.13 11.956 0.272 39.324 -0.396 60.136 -1.296 9.3 -0.404 31.022 -1.89 31.812 -1.876 1.75 0.03 3.194 0.468 3.652 2.056 0.382 1.322 0.772 2.808 0.54 4.204 -0.19 1.142 -0.828 1.436 -2.526 1.716 -12.196 2 -48.37 3.126 -51.724 3.252l-0.006 -0.002Zm86.658 -4.578c-5.288 8.77 -9.024 11.512 -14.426 14.408 -0.882 0.472 -0.366 -0.216 -1.018 -5.83 -0.272 -2.34 -0.362 -1.872 -1.246 -8.748 -0.28 -2.162 -0.258 -2.488 -0.816 -2.526 -1.962 -0.136 -0.904 4.45 0.282 11.27 1.086 6.268 1.902 6.23 1.188 6.43 -7.616 2.136 -15.454 0.398 -22.154 -10.888 -0.462 -0.782 0.224 0 5.252 -1.04 4.046 -0.836 3.222 -8.83 0.536 -10.656 -0.078 -0.05 -0.106 -0.162 -0.158 -0.246 0.08 -0.046 0.162 -0.114 0.25 -0.132 10.17 -1.852 3.164 -1.414 10.808 3.258 0.666 0.408 1.338 0.34 2.43 0.54 2.192 0.398 6.056 -1.52 8.73 -4.62 0.698 -0.802 0.59 -1.036 1.172 -0.458 9.252 9.156 9.806 8.184 9.168 9.24l0.002 -0.002Zm8.128 -27.582c-1.092 8.83 -2.608 17.606 -7.308 25.918 -2.806 -2.374 -0.208 -0.242 -9.062 -8.858 -0.43 -0.42 -0.404 -0.424 -0.132 -0.972 1.256 -2.548 2.828 -1.006 8.282 -3.118 3.494 -1.35 1.932 -9.114 -2.464 -9.644 -1.506 -0.182 -1.672 1.108 -1.368 -1.762 0.186 -1.762 0.158 -1.8 0.472 -1.908 0.238 -0.076 1.078 0.064 10.366 -1.062 1.434 -0.174 1.236 -0.02 1.214 1.406Zm-0.756 -2.692c-2.302 -0.034 -3.634 0.114 -9.356 0.646 -1.248 0.118 -1.714 0.522 -1.77 -0.212 -0.394 -5.202 -0.504 -5.376 -1.156 -7.882 -0.258 -0.99 10.698 -10.884 11.436 -11.546 0.646 1.992 1.862 9.656 1.804 15.16 -0.042 4.072 0.324 3.852 -0.96 3.834h0.002Z" stroke-width="2"></path>
    </g>
  </g>
</svg>