<svg xmlns="http://www.w3.org/2000/svg" viewBox="0 0 400 400" id="Page-Not-Found-1--Streamline-Milano" height="400" width="400">
  <desc>
    Page Not Found 1 Streamline Illustration: https://streamlinehq.com
  </desc>
  <g fill="currentColor" fill-rule="evenodd">
    <path d="M390 62.2c0 -2.1 -0.16 -23.84 -1.38 -26.36 7.18 -4.98 -230 -14.64 -237.52 -6 -5.7 6.5 -10.2 158.56 -5.38 190.24a116.48 116.48 0 0 0 -14.94 5.66c-20.66 9.52 -44.22 52.94 -53.64 73.66a0.74 0.74 0 0 0 0.28 0.94l5.12 3.3c-2 3.16 -3.68 5.3 -4.34 5.06 -11.1 -3.74 -35.22 -12.38 -47.72 -11.56 -1.16 0 -3.08 -6.68 -4.2 -8.64s-2.26 -1.82 -3.14 -0.9c-1.48 1.54 -0.36 5.78 -0.3 7.46 -2.32 -0.2 -8.14 -2 -10 -1.44a1.48 1.48 0 0 0 -0.76 2.28 6 6 0 0 0 2 1.88 7.62 7.62 0 0 0 -2.64 0 1.56 1.56 0 0 0 -1.18 2.28 6.44 6.44 0 0 0 2.56 2.34 2.14 2.14 0 0 0 -1.74 0.74c-2.9 4.14 11.02 6.8 12.54 7.84s42.2 33.02 57.44 37.48c18.96 5.58 24.36 -3.5 37.54 -15.8l1.66 -1.7c-0.14 4.7 -1.78 21.4 -2.46 31.44 -0.52 7.72 -0.48 8.88 0.64 9.02 2.88 0.36 94.4 2 115.54 2.12 3.72 0 4 0 4.2 -0.44 1.18 -2.34 -1.08 -38.44 -1.08 -42l0.22 -0.16c19.32 20.84 26.12 26.86 43.28 21.8 15.32 -4.54 55.88 -36.56 57.5 -37.66s15.48 -3.66 12.56 -7.82a2.16 2.16 0 0 0 -1.74 -0.76 6.44 6.44 0 0 0 2.56 -2.34 1.56 1.56 0 0 0 -1.18 -2.26 7.62 7.62 0 0 0 -2.64 0.1 6.16 6.16 0 0 0 1.88 -1.88c0.5 -0.94 0.3 -2 -0.74 -2.28 -2 -0.5 -8 1.34 -10 1.44 0 -1.66 1.18 -6 -0.3 -7.46a1.58 1.58 0 0 0 -2.12 -0.34c-1.56 1.04 -2.44 5.1 -3.84 8 -0.22 0.42 -0.9 1.8 -1.38 1.78 -12.5 -0.82 -36.52 7.76 -47.72 11.56 -1 0.34 -5.02 -6 -5.58 -6.96a15.64 15.64 0 0 0 2.64 -1.88c0.22 -0.46 -0.44 -1.6 -1.02 -2.68 -4.62 -8.46 -26.24 -43.02 -31.86 -49.78A105.88 105.88 0 0 0 222 230c66.28 2 154 2.62 161.76 -1.08a1.46 1.46 0 0 0 0.92 -1.04c1.16 -8 6 -112.4 5.08 -165.48zM152.62 30.62c12.5 -5.88 223.78 1.24 234.4 6 1.08 4.7 1.2 20 1.24 24.82 -49.02 2.72 -192.98 1.64 -239.54 -2.12 1.16 -16.84 2.5 -28.06 3.9 -28.7zm4.92 187.8a15.14 15.14 0 0 0 8.74 8.6 45.66 45.66 0 0 0 14.3 2.14c7.16 -0.22 10 -2.26 14 -9.4a96.52 96.52 0 0 1 22 8.54c-3.32 12.66 -10.64 30.26 -21.62 37.3 -9.48 6 -23.48 6.3 -32.38 -0.92 -12 -9.56 -20 -26 -24.22 -40.84a102.8 102.8 0 0 1 19.18 -5.42zm9.52 -0.12a27.4 27.4 0 0 0 -10.94 -8.56 71.46 71.46 0 0 1 -1.36 -11.56c-0.12 -2.74 0.12 -2.18 -1.1 -3.08 -10.14 -7.48 -3.12 -13.66 -0.34 -12.66a7.66 7.66 0 0 1 4 5.16 0.66 0.66 0 0 0 0.74 0.54c2 -0.26 9.82 -11 10.82 -12.84 6.22 7.86 26.5 9.6 32.78 5.56 0.98 2 1.24 9.68 1.26 13.12a119.12 119.12 0 0 1 -7.64 21.2c-3.12 0.24 -8.4 3.18 -11.06 4.78 -10.38 -5.28 -16.92 -1.38 -17.16 -1.66zM118 332c-13.18 12 -18.38 20.74 -36.6 15.18 -14.54 -4.36 -55.4 -36.58 -57 -37.64a10.52 10.52 0 0 0 -2.16 -0.86c-0.96 -0.32 -11.08 -3.28 -10 -4.84 0.58 -0.86 7.42 1.6 8.1 1.84a0.76 0.76 0 0 0 0.58 -1.4c-0.22 0 -8.42 -3.1 -9.36 -5 0 -0.14 0 -0.16 0.12 -0.2 1.82 -0.38 7.88 1.66 9.6 2.32a0.76 0.76 0 0 0 0.6 -1.38c-0.78 -0.32 -6.92 -2.78 -8.34 -4.7 -1.16 -1.58 8.78 1.76 10.22 1a1.38 1.38 0 0 0 0.56 -1.26c0 -1.3 -1 -5.64 -0.14 -6.54 0 0 0.14 -0.16 0.22 -0.16h0.1c1.84 1.46 2.96 10.26 6 10 12 -0.86 36 7.4 47.3 11.1 1.24 0.42 3.18 -2 5.46 -5.5 10.36 6.7 31.16 20.36 36.84 25.86 -0.94 1.14 -1.72 1.94 -2.1 2.18zm165.78 -18c4 -1.3 16.26 -5.62 28.12 -8.48 17.76 -4.3 18.7 -1.76 20.38 -3 2 -1.48 3.08 -7.26 4.58 -9.34 0.4 -0.56 0.44 -0.42 0.62 -0.24a2.68 2.68 0 0 1 0.34 1.72c0 3.88 -1.78 6.58 1.5 6.18 2.54 -0.32 9.66 -2.26 8.78 -1.1 -1.22 1.68 -6.32 4 -8.26 4.68a0.76 0.76 0 0 0 0.54 1.4c-0.8 0.3 8 -3 9.74 -2.26 0.6 1.3 -9.14 5.06 -9.34 5.14a0.76 0.76 0 0 0 0.52 1.42c0.5 -0.4 7.62 -2.56 8 -1.84s-1.4 1.64 -2.14 2c-3.4 1.64 -8.88 2.9 -10 3.68 -1.5 1 -42.5 33.28 -57.04 37.68 -16.66 5.1 -23.3 -0.8 -42.32 -21.02 5.5 -3.9 30 -18.28 39.22 -24 2.98 4.48 5.3 7.78 6.76 7.38zm-36.6 -62c6.12 7.42 31 48 32.36 51.68 -3.34 2.46 -36.52 21.68 -42.64 26 0.66 -13.86 0.24 -36.5 0.58 -40.36a0.3 0.3 0 0 0 -0.6 0c-2.62 20.18 0.72 77.82 0.12 82.8 -7.54 0.2 -107.84 -1.74 -118 -2.18a26 26 0 0 1 0 -2.94c1.14 -28.98 3.36 -14 1.82 -60.82 -0.48 -14.86 -0.84 -15.2 -0.94 -20.58a0.3 0.3 0 1 0 -0.6 0c-0.26 13.54 0.4 34.32 1.2 42.6 -8 -7.3 -34 -24 -41.8 -28.84 9.26 -20 32.34 -63.12 52.58 -72.5 2.18 -1.02 4.34 -2 6.46 -2.78 4 15.14 12 31.72 24 41.64 9.34 7.68 24 7.62 34 1.16 11.36 -7.28 18.8 -25 22.24 -38.18A107.42 107.42 0 0 1 247.18 252zm136 -24.56c-8 3.56 -98 2.7 -164.3 0.72a81.46 81.46 0 0 0 -23.58 -9.74A122.64 122.64 0 0 0 204 195.5c0.78 -0.68 6.46 -15.3 6.48 -20.16 0 -18.38 -15.18 -30.44 -35.04 -27.4a32.52 32.52 0 0 0 -16.36 7.42 26.68 26.68 0 0 0 -10.94 19.86c-0.22 2.14 -0.38 7.26 0.42 8.6 -3.1 4.36 0 8.9 4.98 12.58 0.22 6.76 0.6 14.14 3.44 20.92 -3.18 0.56 -6.4 1.28 -9.68 2.2 -3.52 -22.58 -2 -112 1.28 -159.32 50 4.4 188.66 5.8 240.34 2.88 0.74 52.76 -4.5 155.44 -5.7 164.44z" stroke-width="2"></path>
    <path d="M270.5 113.7a50.14 50.14 0 0 0 6.86 -9.48 1.04 1.04 0 1 0 -1.48 -1.46 42.24 42.24 0 0 0 -9.26 7.48 52 52 0 0 0 -9.76 -6.7 1.06 1.06 0 0 0 -1.42 1.56 48 48 0 0 0 7.66 8.9 51 51 0 0 0 -6.88 9.62 1.04 1.04 0 0 0 1.52 1.44 46.74 46.74 0 0 0 9.2 -7.6 50.26 50.26 0 0 0 9.78 6.8 1.04 1.04 0 0 0 1.48 0 1.06 1.06 0 0 0 0 -1.48 43.54 43.54 0 0 0 -7.7 -9.08z" stroke-width="2"></path>
    <path d="M265.52 82.6a21.2 21.2 0 0 0 -16.66 6.86c-6.72 7.28 -8.34 18.78 -8.22 24.84 0.48 18.78 6.38 33.22 25.08 32.82a21.74 21.74 0 0 0 16 -7.32c12.04 -14.04 9.7 -56.44 -16.2 -57.2zm0.14 59.78A16.88 16.88 0 0 1 252 137c-3.62 -4.2 -6 -11.26 -6.22 -22.82a35.84 35.84 0 0 1 4.54 -18.38 16.9 16.9 0 0 1 15.1 -8.52c26.32 -0.52 29.02 55.64 0.24 55.1zM170.48 39.86c-2.78 -3.42 -10.12 -2.12 -10 3.88 0.14 4.16 2.3 6 6 5.9A5.06 5.06 0 0 0 171.74 44a6.12 6.12 0 0 0 -1.26 -4.14zm-4 8.2c-2.7 0 -4.12 -1.2 -4.2 -4.38a4.12 4.12 0 0 1 1.12 -2.98 4.8 4.8 0 0 1 6.22 0 5.44 5.44 0 0 1 1.44 3.3 4 4 0 0 1 -4.6 4zM189.7 40a5.64 5.64 0 0 0 -10 3.88c0.12 4 2.14 6 6 5.9A5.06 5.06 0 0 0 190.96 44a6.12 6.12 0 0 0 -1.26 -4zm-4 8.2c-2.7 0 -4.12 -1.18 -4.2 -4.38a4.12 4.12 0 0 1 1.12 -2.98 4.8 4.8 0 0 1 6.2 0 5.22 5.22 0 0 1 1.44 3.16 4 4 0 0 1 -4.58 4.2zm23.52 -8.54a6 6 0 0 0 -8.3 -0.36 6 6 0 0 0 -1.66 4.24c0.12 4 2.14 6 6 5.9a5.02 5.02 0 0 0 5.26 -5.68 6.14 6.14 0 0 0 -1.3 -4.1zm-4 8.2c-2.72 0 -4.12 -1.2 -4.2 -4.36a4.18 4.18 0 0 1 1.12 -3 4.84 4.84 0 0 1 6.2 0 5.26 5.26 0 0 1 1.46 3.28 4 4 0 0 1 -4.6 4.08zm46.56 110.46a4.26 4.26 0 0 0 -4.72 4.46 4.18 4.18 0 0 0 7.46 2.78c1.48 -3.3 0.72 -6.34 -2.74 -7.24zM278.6 158a4.24 4.24 0 0 0 -4.72 4.44 4.7 4.7 0 0 0 1.3 3.32c2 1.88 5.48 1.06 6.16 -0.54 1.44 -3.22 0.66 -6.3 -2.74 -7.22zM194.94 120.14c0.16 -3.88 4.28 -33.08 4.5 -34a1.06 1.06 0 0 0 -0.64 -1.36 1.08 1.08 0 0 0 -1.34 0.64C194.98 90.98 189.2 114.2 190 121.08a4 4 0 0 0 1.08 2.56c2.5 2.52 6.34 2.88 9.88 2.86 5.2 -0.12 11.5 -0.64 16.82 -1.18a113.86 113.86 0 0 0 2 20.12 1.04 1.04 0 0 0 1.06 1.02 1.06 1.06 0 0 0 1.02 -1.06 109.34 109.34 0 0 0 1.08 -20.66 55.08 55.08 0 0 0 6 -0.9 1.1 1.1 0 0 0 0.54 -0.74 0.96 0.96 0 0 0 -0.28 -0.92 1.24 1.24 0 0 0 -0.92 -0.3c0 -0.5 -0.12 -0.38 -0.22 0L228 122l-5.18 -0.18a125.32 125.32 0 0 0 -2 -21.08 1.06 1.06 0 0 0 -1.08 -1.02 1.08 1.08 0 0 0 -1.04 1.08 120 120 0 0 0 -1.04 20.8c-14.48 -0.62 -20.46 0.5 -22.72 -1.46zm139.6 2.14c-0.36 -0.34 -0.5 -0.28 -6.32 -0.48a123.82 123.82 0 0 0 -2 -21.06 1.06 1.06 0 0 0 -2.12 0 119.5 119.5 0 0 0 -1.04 20.82c-2.84 0 -5.52 -0.24 -6.9 -0.18 -13.18 0.44 -16 -1.36 -15.82 -1.18 0.16 -3.88 4.28 -33.06 4.5 -34a1.06 1.06 0 1 0 -2 -0.7c-2.48 5.46 -8.26 28.68 -7.48 35.56a4.2 4.2 0 0 0 1.08 2.58c2.5 2.52 6.34 2.86 9.88 2.84 5.18 -0.12 11.48 -0.62 16.82 -1.18a114.94 114.94 0 0 0 2 20.12 1.04 1.04 0 0 0 1.06 1.02 1.02 1.02 0 0 0 1.02 -1.06 107.54 107.54 0 0 0 1.1 -20.66 49.8 49.8 0 0 0 6 -0.9 1.04 1.04 0 0 0 0.22 -1.54zM265.38 168c-7.6 0.18 -14.58 2.86 -18.68 9.28a1.04 1.04 0 0 0 0.1 1.48 1.06 1.06 0 0 0 1.5 -0.1c4.12 -3.58 11.66 -5.34 17.18 -5.44 4.92 0 13.76 1.28 17.56 4.36a1.04 1.04 0 1 0 1.54 -1.38c-3.18 -4.74 -9.86 -8.34 -19.2 -8.2zm-94.84 158c-1.32 -0.2 -8.2 0.2 -8.14 1.2a32.54 32.54 0 0 0 0 7.84 0.94 0.94 0 0 0 0.68 0.58 32.46 32.46 0 0 0 8.4 -0.36 0.76 0.76 0 0 0 0.42 -0.32c0.68 -1.04 0 -7.16 -0.62 -8.34a0.94 0.94 0 0 0 -0.74 -0.6zm-11.8 -11.52c-1.32 -0.2 -8.22 0.2 -8.16 1.2a33.68 33.68 0 0 0 -0.1 7.84 0.94 0.94 0 0 0 0.68 0.58 32.42 32.42 0 0 0 8.4 -0.36 0.68 0.68 0 0 0 0.42 -0.32c0.68 -1.04 0 -7.16 -0.6 -8.34a1.02 1.02 0 0 0 -0.64 -0.6zm11.7 -2.38a0.84 0.84 0 0 0 0.42 -0.32c0.68 -1.04 0 -7.16 -0.62 -8.34a0.94 0.94 0 0 0 -0.64 -0.6c-1.32 -0.2 -8.2 0.2 -8.14 1.2a32.68 32.68 0 0 0 0 7.86 0.92 0.92 0 0 0 0.68 0.56 32.46 32.46 0 0 0 8.3 -0.36zm11.74 1.24c-1.34 -0.22 -8.22 0.22 -8.16 1.2a33.68 33.68 0 0 0 -0.1 7.84 0.94 0.94 0 0 0 0.68 0.58 33.32 33.32 0 0 0 8.4 -0.36 0.76 0.76 0 0 0 0.42 -0.32c0.68 -1.06 0 -7.16 -0.6 -8.36a1.02 1.02 0 0 0 -0.64 -0.58zm15.08 11.44c-1.3 -0.22 -8.2 0.18 -8.14 1.18a32.6 32.6 0 0 0 0 7.86 0.92 0.92 0 0 0 0.68 0.56 31.56 31.56 0 0 0 8.4 -0.36 0.76 0.76 0 0 0 0.42 -0.32c0.68 -1.04 0 -7.16 -0.62 -8.34a0.86 0.86 0 0 0 -0.74 -0.58zm-1.14 -14.08a0.96 0.96 0 0 0 0.42 -0.32c0.66 -1.06 0 -7.18 -0.62 -8.36a0.98 0.98 0 0 0 -0.64 -0.58c-1.32 -0.2 -8.22 0.18 -8.16 1.2a32.86 32.86 0 0 0 0 7.84 0.88 0.88 0 0 0 0.68 0.58 32.6 32.6 0 0 0 8.32 -0.36zm12.14 1.3c-1.32 -0.22 -8.2 0.18 -8.14 1.2a32.42 32.42 0 0 0 0 7.84 0.98 0.98 0 0 0 0.68 0.58 32.5 32.5 0 0 0 8.4 -0.36 0.76 0.76 0 0 0 0.42 -0.34c0.68 -1.04 0 -7.14 -0.6 -8.34a0.96 0.96 0 0 0 -0.76 -0.58zM179 189.2a0.3 0.3 0 0 0 0 -0.6 12.46 12.46 0 0 0 -11.2 0.8 0.3 0.3 0 0 0 0.24 0.56 43.7 43.7 0 0 1 10.96 -0.76zm10.44 1.98a35.88 35.88 0 0 1 8.9 3.4 0.3 0.3 0 0 0 0.4 -0.46 8.38 8.38 0 0 0 -4.16 -3.02 10 10 0 0 0 -5.08 -0.54 0.32 0.32 0 0 0 -0.06 0.62zm-14.16 5.12v-2.14a0.78 0.78 0 0 0 -1.54 0v2a0.76 0.76 0 0 0 1.54 0.14zm15.72 0.66c0 0.64 -0.16 1.1 -0.26 1.74a0.76 0.76 0 0 0 1.52 0.22c0 -0.64 0.16 -1.1 0.24 -1.74a0.76 0.76 0 1 0 -1.5 -0.22zm-13 10.46c1.12 1.08 5.14 1.76 6.26 0.5 1.76 -2 0 -12 -0.62 -12.28a0.3 0.3 0 0 0 -0.46 0.36s0.16 0.18 0 0c-0.3 -0.58 0.82 9.84 0 10.92a7.44 7.44 0 0 1 -4.78 0 0.3 0.3 0 0 0 -0.4 0.5zm-4 4.12a0.3 0.3 0 1 0 0 0.6 10.18 10.18 0 0 1 4 1.14 13.2 13.2 0 0 1 3.22 2.72 0.3 0.3 0 1 0 0.56 -0.24 6 6 0 0 0 -7.78 -4.22zm-115.22 -8.9a1.16 1.16 0 1 0 2.2 -0.76c-8 -24.8 -9.52 -30.14 -14 -43.86a2.96 2.96 0 1 0 -5.56 2c13.6 36.34 12.26 29.24 17.36 42.62zm5.78 27.72c12.46 4.26 16 -12.24 7.72 -15.54 -11.48 -4.6 -16.98 12.1 -7.72 15.54zM72 218.8c2.4 3.28 0 10.12 -6.26 8 -7.92 -2.4 0.12 -16.42 6.26 -8zm19.24 -42.48a1.18 1.18 0 1 0 2.32 -0.32c-1.68 -17.56 -1.84 -20.48 -5.06 -41.3a2.96 2.96 0 0 0 -5.82 1.08c1.18 5.9 7.72 36.66 8.56 40.54zm-1.86 19.3c2.16 1.76 5.38 2.46 9.24 -0.2 8.66 -3.68 4.86 -14 -2.14 -14.94 -10.64 -1.18 -12.28 10.92 -7.1 15.14zM96 184.3a5.24 5.24 0 0 1 1.86 9.7c-4.2 1.82 -7.02 -0.12 -7.46 -4a4.84 4.84 0 0 1 5.6 -5.7zm-75.12 119.96z" stroke-width="2"></path>
  </g>
</svg>